<svg xmlns="http://www.w3.org/2000/svg" width="158" height="35" viewBox="0 0 158 35" fill="none">
<path d="M0 25.6941L13.8901 9.22355H0.496075V3.87061H21.2486V9.22355L7.60649 25.6941H21.7446V31.2118H0V25.6941Z" fill="#08124d"/>
<path d="M48.1194 20.6706C48.1194 27.0941 44.1508 31.8706 36.5443 31.8706C28.9378 31.8706 24.9692 27.0941 24.9692 20.6706V3.87061H31.0048V20.4235C31.0048 23.8 33.3198 26.353 36.5443 26.353C39.7688 26.353 42.0838 23.8 42.0838 20.4235V3.87061H48.1194V20.6706Z" fill="#08124d"/>
<path d="M53.7417 3.87061H63.9112C69.6161 3.87061 74.4115 5.68237 74.4115 12.1883C74.4115 18.6941 70.0295 20.5883 64.242 20.5883H59.7773V31.2118H53.7417V3.87061ZM59.7773 15.4824H63.8286C65.9782 15.4824 68.1279 14.7412 68.1279 12.1883C68.1279 9.38825 65.2341 8.97649 62.9191 8.97649H59.7773V15.4824Z" fill="#08124d"/>
<path d="M77.4702 11.5293H81.5215C85.4901 11.5293 88.7146 13.1764 88.7146 17.6234C88.7146 21.5764 85.4901 23.6352 81.8522 23.6352H77.4702C77.4702 23.6352 77.4702 11.5293 77.4702 11.5293ZM80.116 21.2469H81.5215C84.0019 21.2469 85.9035 20.2587 85.9035 17.5411C85.9035 15.1528 84.0019 13.9999 81.6869 13.9999H80.116V21.2469Z" fill="#08124d"/>
<path d="M90.8643 11.5293H99.1322V13.9999H93.51V16.2234H98.8841V18.694H93.51V21.1646H99.4629V23.6352H90.8643V11.5293Z" fill="#08124d"/>
<path d="M96.4868 3.87059L98.7191 0H93.0969L90.9472 3.87059H77.3052V8.81176H99.5459V3.87059H96.4868Z" fill="#FF6B43"/>
<path d="M99.5459 26.353H77.3052V31.2942H80.447L78.5454 35.0001H84.1676L86.0692 31.2942H99.5459V26.353Z" fill="#FF6B43"/>
<path d="M122.696 11.0353C121.373 9.55294 119.472 8.72941 117.487 8.81176C112.94 8.81176 109.55 12.5176 109.55 17.6235C109.55 22.7294 112.94 26.4353 117.322 26.4353C119.554 26.5176 121.704 25.3647 123.027 23.4706L128.07 27.2588C125.755 30.3882 122.035 32.1176 118.149 32.0353C109.55 32.0353 103.349 26.4353 103.349 17.7059C103.349 8.97646 109.633 3.37646 118.149 3.37646C121.208 3.37646 125.094 4.44705 127.409 7.41176L122.696 11.0353Z" fill="#08124d"/>
<path d="M143.2 3.21191C151.799 3.21191 158 8.81191 158 17.5413C158 26.2707 151.799 31.8707 143.2 31.8707C134.602 31.8707 128.401 26.2707 128.401 17.5413C128.401 8.81191 134.602 3.21191 143.2 3.21191ZM143.2 26.3531C148.327 26.3531 151.716 22.6472 151.716 17.5413C151.716 12.4354 148.327 8.72956 143.2 8.72956C138.074 8.72956 134.684 12.4354 134.684 17.5413C134.684 22.6472 138.074 26.3531 143.2 26.3531Z" fill="#08124d"/>
</svg>